<?xml version="1.0" standalone="no"?><svg xmlns="http://www.w3.org/2000/svg" viewBox="0 0 1440 320"><path fill="#a58dff" fill-opacity="1" d="M0,192L21.8,176C43.6,160,87,128,131,144C174.5,160,218,224,262,240C305.5,256,349,224,393,197.3C436.4,171,480,149,524,149.3C567.3,149,611,171,655,176C698.2,181,742,171,785,181.3C829.1,192,873,224,916,202.7C960,181,1004,107,1047,101.3C1090.9,96,1135,160,1178,160C1221.8,160,1265,96,1309,96C1352.7,96,1396,160,1418,192L1440,224L1440,0L1418.2,0C1396.4,0,1353,0,1309,0C1265.5,0,1222,0,1178,0C1134.5,0,1091,0,1047,0C1003.6,0,960,0,916,0C872.7,0,829,0,785,0C741.8,0,698,0,655,0C610.9,0,567,0,524,0C480,0,436,0,393,0C349.1,0,305,0,262,0C218.2,0,175,0,131,0C87.3,0,44,0,22,0L0,0Z" data-darkreader-inline-fill="" style="--darkreader-inline-fill:#190077;"></path></svg>